<svg width="206" height="37" viewBox="0 0 206 37" fill="none" xmlns="http://www.w3.org/2000/svg">
<path d="M104.766 5.15973C104.884 5.80661 104.884 6.45349 104.884 7.10036C104.884 15.0393 104.884 23.0371 104.884 30.9761C104.884 33.446 104.002 35.3866 101.709 36.3863C99.2401 37.4448 96.8885 37.0332 94.8896 35.2102C93.6551 34.0928 92.7144 32.6815 91.6562 31.3289C88.8931 27.8005 85.8949 24.3897 83.5433 20.5084C83.6021 20.4496 83.5433 20.4496 83.4845 20.3908C83.3669 20.5672 83.4257 20.8024 83.4257 20.9788C83.4257 24.0956 83.4257 27.1536 83.4257 30.2116C83.4257 31.0937 83.3081 31.917 83.073 32.7403C82.3087 35.3866 80.0747 36.9744 77.3116 36.798C73.9018 36.5627 71.9618 34.5045 71.7266 30.9173C71.6678 30.5644 71.6678 30.2116 71.6678 29.8587C71.6678 21.9198 71.6678 13.9808 71.6678 6.04183C71.6678 3.57193 72.6084 1.6313 74.96 0.631579C77.3704 -0.368143 79.6632 -0.0152998 81.662 1.80772C82.7202 2.74864 83.4845 4.04239 84.3663 5.21854C87.0119 8.80577 89.8337 12.3342 92.3029 16.0979C92.5381 16.5095 92.7732 16.8623 93.1847 17.2152C93.1847 17.0388 93.1847 16.8035 93.1847 16.6271C93.1847 13.3339 93.1847 10.0407 93.1847 6.74753C93.1847 5.39496 93.4199 4.04239 94.1254 2.86625C95.4188 0.690387 97.4176 -0.0152981 99.7692 0.21993C102.532 0.455159 104.414 2.33699 104.766 5.15973ZM190.599 4.1012C190.011 2.10176 188.718 0.690387 186.601 0.278737C184.367 -0.132913 182.31 0.161122 180.722 2.04295C179.664 3.33671 179.311 4.8657 179.311 6.45349C179.311 9.8055 179.311 13.2163 179.311 16.5683C179.311 16.8035 179.311 16.98 179.311 17.3916C178.9 16.6859 178.606 16.2155 178.253 15.6862C175.196 11.2169 171.904 6.98275 168.67 2.63102C168.259 2.10176 167.73 1.6313 167.142 1.21965C165.084 -0.132914 162.968 -0.250526 160.793 0.749196C158.853 1.69011 157.853 3.33671 157.853 5.45377C157.794 13.8044 157.853 22.2138 157.853 30.5644C157.853 30.7408 157.912 30.9761 157.912 31.1525C158.147 34.5045 160.146 36.6215 163.438 36.8568C165.731 37.0332 167.847 35.8571 168.847 33.8576C169.258 32.9755 169.552 32.0934 169.552 31.1525C169.552 27.7417 169.611 24.4485 169.611 21.0965C169.611 20.92 169.611 20.6848 169.611 20.4496C169.67 20.4496 169.67 20.4496 169.611 20.4496C169.964 21.0377 170.258 21.5669 170.669 22.0962C173.667 26.3891 177.077 30.3292 180.252 34.4457C180.487 34.7397 180.84 35.0926 181.134 35.3278C183.133 36.9744 185.425 37.2684 187.777 36.2687C190.07 35.269 190.952 33.3283 190.952 30.9173C190.952 22.9783 190.952 14.9805 190.952 6.98275C190.952 6.04184 190.893 5.04211 190.599 4.1012ZM32.6316 11.9225C34.9832 18.4501 34.2189 24.6837 29.5746 30.1528C26.7527 33.5048 22.9314 35.269 18.6397 35.8571C14.7008 36.4451 10.7032 36.0335 6.70548 36.0923C6.52911 36.0923 6.29396 36.0335 6.11759 35.9747C3.00175 35.4454 0.826538 32.8579 0.826538 29.7411C0.826538 22.2138 0.826538 14.6865 0.826538 7.21798C0.826538 3.68955 3.53085 0.866809 7.11701 0.808002C8.70432 0.808002 10.2916 0.808002 12.1141 0.808002C14.1717 0.866809 16.5233 0.63158 18.8749 1.10204C25.3417 2.33699 30.3388 5.57138 32.6316 11.9225ZM22.1083 18.509C22.1671 15.2158 19.9919 12.6282 16.6997 12.2166C15.4651 12.0402 14.2893 12.1578 13.0547 12.099C12.5844 12.0402 12.4668 12.2166 12.4668 12.687C12.5256 14.6277 12.5256 16.5683 12.5256 18.509C12.5256 20.4496 12.5256 22.3902 12.5256 24.3309C12.5256 24.6249 12.4668 24.8601 12.9372 24.8601C14.1717 24.8013 15.4063 24.9189 16.6409 24.7425C19.8743 24.3309 22.0495 21.9198 22.1083 18.509ZM130.222 18.7442C129.928 18.3913 129.928 18.2149 130.222 17.8621C132.28 15.5098 134.337 13.1575 136.336 10.7464C137.336 9.51145 137.982 8.1589 138.1 6.5711C138.335 3.10148 135.043 -0.0741062 131.574 0.278737C129.575 0.455158 128.164 1.5725 126.989 3.10148C124.931 5.80661 122.756 8.39412 120.639 11.0992C120.639 9.33504 120.698 7.57083 120.698 5.86542C120.581 2.45461 118.17 0.161125 114.878 0.102318C111.527 0.102318 109.058 2.45461 108.999 5.86542C108.94 14.2748 108.94 22.6843 108.999 31.0937C108.999 34.4457 111.468 36.8568 114.819 36.8568C118.111 36.9156 120.522 34.5045 120.639 31.0937C120.757 29.3883 120.698 27.7417 120.698 26.0363C120.698 25.8598 120.581 25.6834 120.816 25.5658C120.933 25.7422 120.992 25.8598 121.11 25.9775C123.344 28.859 125.695 31.6229 127.988 34.4457C128.811 35.4454 129.752 36.1511 130.986 36.5039C134.514 37.5625 138.394 34.5633 138.511 30.7408C138.57 28.9178 137.924 27.4476 136.748 26.0951C134.573 23.684 132.397 21.1553 130.222 18.7442ZM67.7289 15.0981C67.7289 11.7461 67.7289 8.9822 67.6701 6.15945C67.6701 5.63019 67.6701 5.15973 67.5525 4.68927C66.9059 1.69011 64.2603 -0.191718 61.2033 0.102318C58.0875 0.455161 55.971 2.80745 55.971 5.98303C55.971 10.8052 55.971 15.6862 55.971 20.5084C55.971 20.8612 55.971 21.2141 55.9122 21.5669C55.6183 24.3309 52.9728 26.0363 50.5624 24.8013C49.0339 24.0368 48.446 22.6843 48.446 21.0377C48.446 16.0979 48.446 11.0993 48.446 6.15945C48.446 2.57222 46.0356 0.102314 42.6258 0.0435072C39.216 0.0435072 36.8057 2.51341 36.7469 6.04183C36.6881 11.2757 36.7469 16.5095 36.7469 21.8021C36.8057 22.5666 36.8057 23.2723 36.9233 23.978C37.7463 29.5059 40.627 33.5048 45.8592 35.6218C48.7987 36.8568 51.8558 37.0332 54.9716 36.6215C62.0263 35.7394 67.2586 30.1528 67.6701 23.0959C67.8465 20.2732 67.6701 17.3916 67.7289 15.0981ZM151.974 1.5725C150.034 -0.132911 147.8 -0.426949 145.449 0.572772C143.215 1.57249 142.215 3.45433 142.156 5.86542C142.098 10.0407 142.156 14.216 142.156 18.3913C142.156 22.6843 142.156 26.8596 142.098 31.0937C142.098 34.3869 144.508 36.6804 147.859 36.798C151.034 36.9156 153.679 34.5045 153.738 31.2701C153.797 22.6843 153.797 14.0984 153.738 5.51257C153.738 3.98359 153.15 2.57222 151.974 1.5725Z" fill="#A7A7A7"/>
<path d="M194.597 8.57051C194.538 7.15914 194.597 5.74777 194.891 4.3364C195.537 1.39604 198.007 -0.25056 201.005 0.219897C203.885 0.690354 205.767 3.04264 205.473 5.983C205.238 8.39409 204.532 10.7464 203.591 12.981C203.004 14.2748 202.181 15.3333 200.77 15.8038C198.477 16.5683 196.066 15.4509 195.243 13.1575C194.656 11.6873 194.597 10.0995 194.597 8.57051Z" fill="#A7A7A7"/>
</svg>
