<svg width="264" height="36" viewBox="0 0 264 36" fill="none" xmlns="http://www.w3.org/2000/svg">
<path d="M96.3248 11.322C96.3248 5.55061 91.6237 0.848022 85.854 0.848022H68.4027V35.0487H76.1668V21.7959H82.3638L89.9141 35.0487H98.533L90.3415 20.7271C94.0455 19.0171 96.3248 15.312 96.3248 11.322ZM84.287 15.1695H76.0956V7.47439H84.4294C86.9937 7.6169 88.632 9.11318 88.632 11.322C88.5608 13.5308 86.8513 15.0983 84.287 15.1695ZM54.7266 0.919273H62.7043V21.5109C62.7043 30.4886 57.1484 35.9037 47.8173 35.9037C38.4862 35.9037 32.9302 30.5598 32.9302 21.5109V0.919273H40.908V21.0122C40.908 25.8572 43.4723 28.636 47.8173 28.636C52.2335 28.636 54.7978 25.8572 54.7978 21.0122V0.919273H54.7266ZM142.98 28.2085H161.429V35.0487H135.074V0.848022H160.574V7.40315H143.052V14.2433H158.437V20.9409H143.052V28.2085H142.98ZM22.3882 16.0958C24.81 14.5995 26.3058 11.9632 26.3058 9.11318C26.3058 4.62434 22.6731 0.919274 18.1144 0.848022H0.734314V35.0487H19.6102C24.9525 35.0487 29.2263 30.7023 29.2263 25.3585C29.2263 21.5822 27.0181 17.6633 22.3882 16.0958ZM8.5696 7.26064H14.9803C16.9035 7.26064 18.5418 8.89942 18.5418 10.8232C18.5418 12.8182 16.9747 14.3858 14.9803 14.3858H8.5696V7.26064ZM17.3309 28.636H8.5696V20.6559H17.2597C20.1088 20.6559 21.4622 22.9359 21.4622 24.5747C21.4622 26.641 20.0376 28.636 17.3309 28.636ZM194.622 11.322C194.622 5.55061 189.921 0.848022 184.151 0.848022H166.7V35.0487H174.464V21.7959H180.661L188.211 35.0487H196.83L188.639 20.7271C192.271 19.0171 194.622 15.312 194.622 11.322ZM182.513 15.1695H174.322V7.47439H182.655C185.22 7.6169 186.858 9.11318 186.858 11.322C186.858 13.5308 185.077 15.0983 182.513 15.1695ZM123.891 16.0958C126.313 14.5995 127.808 11.9632 127.808 9.11318C127.808 4.62434 124.176 0.919274 119.617 0.848022H102.237V35.0487H121.113C126.455 35.0487 130.729 30.7023 130.729 25.3585C130.729 21.5822 128.45 17.6633 123.891 16.0958ZM110.072 7.26064H116.483C118.406 7.26064 120.044 8.89942 120.044 10.8232C120.044 12.8182 118.477 14.3858 116.483 14.3858H110.072V7.26064ZM118.762 28.636H110.072V20.6559H118.762C121.611 20.6559 122.965 22.9359 122.965 24.5747C122.965 26.641 121.54 28.636 118.762 28.636ZM264 0.848022L250.395 21.0834V34.9774H241.99V21.0834L228.456 0.848022H238.428L246.264 12.6045L254.099 0.848022H264ZM228.385 11.322C228.385 5.55061 223.684 0.848022 217.914 0.848022H200.463V35.0487H208.227V21.7959H214.424L221.974 35.0487H230.664L222.473 20.7271C226.106 19.0171 228.385 15.312 228.385 11.322ZM216.276 15.1695H208.085V7.47439H216.418C218.983 7.6169 220.621 9.11318 220.621 11.322C220.621 13.5308 218.911 15.0983 216.276 15.1695Z" fill="#A7A7A7"/>
</svg>
