<svg width="230" height="38" viewBox="0 0 230 38" fill="none" xmlns="http://www.w3.org/2000/svg">
<path d="M51.502 14.7452V34.1935C51.502 35.6553 50.1677 36.7358 48.8969 36.7358H42.1619C40.8277 36.7358 39.7475 35.6553 39.7475 34.1935V14.9358C39.1757 11.5038 37.1425 10.7411 34.728 10.9318C33.9656 8.77082 33.2031 6.92769 31.9324 5.1481C29.3274 2.60583 29.7086 3.49563 28.9461 2.60583C29.1367 2.60583 30.471 1.52536 32.3136 0.953351C33.775 0.572011 36.5706 0.381337 38.4768 0.572007C43.4962 1.27113 45.2118 2.54226 46.6731 3.68628L48.198 5.1481C51.6926 8.89795 51.502 13.2834 51.502 14.7452ZM66.0521 1.4618H59.5077C57.9828 1.4618 56.9027 2.54226 56.9027 4.00407V34.13C56.9027 35.5918 58.0464 36.6722 59.5077 36.6722H66.0521C67.577 36.6722 68.6572 35.5918 68.6572 34.13V4.00407C68.6572 2.54226 67.5135 1.4618 66.0521 1.4618ZM103.285 1.4618H96.5502C95.0253 1.4618 93.9451 2.54226 93.9451 4.00407V24.7236C93.9451 27.0752 91.3401 27.4565 91.3401 27.4565V37.6256H94.8982C96.3596 37.4349 98.6469 37.0536 100.49 35.7824C101.951 34.702 103.476 33.0495 104.619 31.2064C105.382 29.9352 105.573 28.8548 105.763 27.393V3.94051C105.7 2.54226 104.619 1.4618 103.285 1.4618ZM86.0029 25.1049V22.1813L85.8123 4.38541C85.8123 2.92361 84.6686 1.84314 83.3979 1.84314H76.6629C75.2015 1.84314 74.0579 2.92361 74.0579 4.38541V27.8379C74.2485 29.2997 74.4391 30.3801 75.3286 31.6513C76.4723 33.3037 77.743 35.0833 79.4585 36.0367C81.3011 37.3078 83.3979 37.8798 84.8593 37.8798H88.4174V27.7108C88.4174 27.6472 86.0029 27.2659 86.0029 25.1049ZM17.0011 0.572007H16.2386C7.85163 0.572007 1.11664 7.30902 1.11664 15.1265L0.926025 34.1935C0.926025 35.6553 2.06971 36.7358 3.53107 36.7358H9.69422C11.1556 36.7358 12.2993 35.6553 12.2993 34.1935V14.9358C12.6805 13.474 14.9043 11.6309 16.7469 11.6309C18.3989 11.6309 20.4956 13.474 21.0675 14.9358V34.0029C21.0675 35.4647 22.2111 36.5451 23.4819 36.5451H29.8357C31.1699 36.5451 32.2501 35.4647 32.2501 34.0029L32.4407 15.4443C32.5042 7.43613 25.5786 0.572007 17.0011 0.572007ZM171.334 4.76676L170 3.30494C168.538 2.22447 166.823 0.953355 161.613 0.0635606C159.961 -0.12711 157.165 0.254227 155.64 0.635568C153.798 1.20758 152.273 2.28805 152.082 2.28805C153.035 3.17784 152.463 2.28805 155.068 4.83032C156.53 6.67346 157.292 8.45304 157.864 10.614C160.469 10.4233 162.312 11.186 162.883 14.6181V33.8757C162.883 35.3376 164.154 36.418 165.489 36.418H172.224C173.558 36.418 174.638 35.3376 174.638 33.8757L174.829 14.4274C174.892 12.902 175.019 8.58016 171.334 4.76676ZM189.379 1.14401H182.644C181.309 1.14401 180.229 2.22448 180.229 3.68628V33.8122C180.229 35.274 181.373 36.3545 182.644 36.3545H189.379C190.713 36.3545 191.793 35.274 191.793 33.8122V3.68628C191.793 2.22448 190.713 1.14401 189.379 1.14401ZM226.485 1.14401H219.75C218.479 1.14401 217.335 2.22448 217.335 3.68628V21.6729C217.335 21.8635 217.335 22.7533 217.145 24.4058C217.145 26.7574 214.73 27.1387 214.73 27.1387V37.3078H218.288C219.75 37.1171 221.846 36.6087 223.689 35.4647C225.341 34.3842 226.866 32.7317 227.946 30.9521C228.708 29.681 228.899 28.6005 229.09 27.1387V3.68628C229.09 2.22448 227.946 1.14401 226.485 1.14401ZM209.139 24.7236V3.81341C209.139 2.54227 207.995 1.4618 206.534 1.4618H199.989C198.465 1.4618 197.384 2.54227 197.384 3.81341V27.4565C197.575 28.9183 197.766 29.9988 198.528 31.0793C199.672 32.9224 201.133 34.702 202.785 35.5918C204.628 36.8629 206.724 37.4349 208.186 37.4349H211.744V27.2658C211.744 27.2658 209.329 26.8845 209.139 24.7236ZM140.391 0L139.629 0.190663C131.051 0.190663 124.38 6.92768 124.38 14.7452V33.8122C124.38 35.274 125.523 36.3545 126.985 36.3545H133.148C134.609 36.3545 135.753 35.274 135.753 33.8122L135.562 14.9358L135.753 14.5545C136.134 13.0927 138.358 11.3131 140.01 11.3131C141.662 11.3131 143.949 12.9656 144.267 14.5545L144.458 14.7452L144.267 33.6215C144.267 35.0833 145.411 36.1638 146.872 36.1638H153.035C154.56 36.1638 155.64 35.0833 155.64 33.6215V14.9358C155.64 7.11836 148.969 0 140.391 0Z" fill="#A7A7A7"/>
</svg>
