<svg width="145" height="34" viewBox="0 0 145 34" fill="none" xmlns="http://www.w3.org/2000/svg">
<path fill-rule="evenodd" clip-rule="evenodd" d="M61.7619 0.772095C52.8461 0.772095 45.6181 8.00219 45.6181 16.9208C45.6181 25.8393 52.8461 33.0694 61.7619 33.0694C70.6778 33.0694 77.9057 25.8393 77.9057 16.9208C77.949 8.00219 70.7211 0.772095 61.7619 0.772095ZM61.7619 27.1814C56.0921 27.1814 51.5044 22.5923 51.5044 16.9208C51.5044 11.2492 56.0921 6.66008 61.7619 6.66008C67.4317 6.66008 72.0195 11.2492 72.0195 16.9208C72.0195 22.5923 67.4317 27.1814 61.7619 27.1814ZM103.009 6.66008H97.5553V30.0388C97.5553 31.684 96.2569 32.9828 94.6122 32.9828C92.9675 32.9828 91.6691 31.684 91.6691 30.0388V6.66008H87.4276V30.0388C87.4276 31.684 86.1291 32.9828 84.4845 32.9828C82.8398 32.9828 81.5413 31.684 81.5413 30.0388V6.66008H76.6506C75.0059 6.66008 73.7075 5.36126 73.7075 3.71609C73.7075 2.07092 75.0059 0.772095 76.6506 0.772095H102.965C104.61 0.772095 105.909 2.07092 105.909 3.71609C105.952 5.31797 104.61 6.66008 103.009 6.66008ZM144.255 3.71609V30.0388C144.255 31.684 142.957 32.9828 141.312 32.9828C139.668 32.9828 138.369 31.684 138.369 30.0388V12.9377V13.1542L125.731 31.2944C124.822 32.6365 123.091 33.0694 122.139 33.1127C114.002 33.1127 107.294 27.0948 106.168 19.3019V30.0388C106.168 31.684 104.87 32.9828 103.225 32.9828C101.58 32.9828 100.282 31.684 100.282 30.0388V11.9852C100.282 10.3401 101.58 9.04125 103.225 9.04125C104.87 9.04125 106.168 10.3401 106.168 11.9852V14.5829C107.294 6.74666 114.002 0.772095 122.139 0.772095C124.995 0.772095 127.722 1.55139 130.059 2.85021C130.838 3.36974 131.401 4.27891 131.401 5.31796C131.401 6.96314 130.103 8.26196 128.458 8.26196C127.895 8.26196 127.419 8.13207 126.986 7.87231C125.558 7.09301 123.957 6.70337 122.182 6.70337C116.512 6.70337 111.925 11.2925 111.925 16.964C111.925 22.3325 116.08 26.7485 121.36 27.1814L138.629 2.59044C139.105 1.55139 140.1 0.815388 141.312 0.815388C142.957 0.772094 144.255 2.07092 144.255 3.71609ZM48.6478 28.1772C49.6866 29.4327 49.4701 31.2944 48.215 32.3334C46.9598 33.3725 45.0988 33.156 44.06 31.9005L35.577 21.38L27.0939 31.9005C26.0551 33.156 24.2373 33.3725 22.9389 32.3334C21.6838 31.2944 21.4674 29.476 22.5061 28.1772L31.8115 16.7043L28.0461 12.0718V14.7561C28.0461 20.341 23.5448 24.8436 17.9616 24.8436C12.3784 24.8436 7.87714 20.341 7.87714 14.7561V3.71609C7.87714 2.07092 9.17557 0.772095 10.8202 0.772095C12.4649 0.772095 13.7633 2.07092 13.7633 3.71609V14.7561C13.7633 17.0939 15.6244 18.9556 17.9616 18.9556C20.2988 18.9556 22.1599 17.0506 22.1599 14.7561V3.71609C22.1599 2.07092 23.4583 0.772095 25.103 0.772095C26.1417 0.772095 27.0506 1.33492 27.57 2.1575L35.577 12.0285L43.7571 1.94103C44.7958 0.685505 46.6136 0.469035 47.912 1.50809C49.1672 2.54715 49.3836 4.3655 48.3448 5.66432L39.3857 16.7476L48.6478 28.1772ZM20.9047 29.9522C20.9047 31.5974 19.6063 32.8962 17.9616 32.8962H3.59232C3.37592 32.9395 3.15951 32.9828 2.94311 32.9828C1.29843 32.9828 0 31.684 0 30.0388V3.71609C0 2.07092 1.29843 0.772095 2.94311 0.772095C4.58778 0.772095 5.88621 2.07092 5.88621 3.71609V27.0083H17.9616C19.6063 27.0083 20.9047 28.3071 20.9047 29.9522Z" fill="#A7A7A7"/>
</svg>
